<svg width="135" height="95" viewBox="0 0 135 95" fill="none" xmlns="http://www.w3.org/2000/svg">
<g clip-path="url(#clip0_226_5)">
<path d="M66.1899 27.6411C69.4752 23.6399 72.8814 19.7389 76.7512 16.2591C78.404 14.8251 80.097 13.3208 82.3846 13.04C84.7831 12.7392 86.98 14.1331 88.4413 15.9081C89.3281 16.9912 89.963 18.1845 90.4266 19.4481C90.477 19.5784 90.3157 19.7088 90.1948 19.6286C88.2297 18.3349 86.2544 16.5599 84.0676 16.1388C81.9714 15.7376 79.8955 16.921 78.2226 18.0943C76.1768 19.5684 74.2016 21.203 72.2566 22.8276C70.2915 24.4722 68.3465 26.1569 66.4015 27.8316C66.341 27.8818 66.2302 27.8517 66.1899 27.8216C66.1596 27.7815 66.1395 27.6913 66.1899 27.6311" fill="#28A31C"/>
<path d="M60.9394 34.1194C65.5449 29.9978 70.2512 25.9765 75.4512 22.5869C77.4768 21.2933 79.8753 19.9495 82.425 19.8292C85.0451 19.6587 87.7863 20.8721 89.5498 22.6571C90.739 23.8304 91.6359 25.1943 92.2708 26.6484C92.3313 26.7888 92.16 26.9191 92.039 26.8289C90.7491 25.9063 89.5498 25.0037 88.2901 24.3118C85.8413 22.9179 83.342 22.5669 80.6211 23.1385C77.7993 23.69 75.1892 25.4049 72.7 26.879C68.7698 29.2557 64.9403 31.8029 61.1208 34.35C61.0503 34.4002 60.9596 34.3801 60.9092 34.3099C60.8689 34.2497 60.879 34.1695 60.9294 34.1194" fill="#28A31C"/>
<path d="M56.0316 39.7252C58.8231 37.6293 61.7154 35.6738 64.6581 33.7986C68.024 31.6927 71.4806 29.7071 75.2094 28.2429C77.3861 27.4307 79.6234 26.6986 81.9714 26.6585C84.8436 26.6184 87.7762 27.7616 89.9328 29.5165C91.3739 30.6798 92.563 32.0637 93.5003 33.588C93.5809 33.7183 93.4196 33.8788 93.2886 33.7885C90.4367 32.0336 87.5545 30.2987 84.2893 29.8675C81.528 29.4764 78.6861 29.8675 75.9954 30.5695C72.3272 31.6826 68.8201 33.3774 65.3837 35.0722C62.2697 36.5964 59.2262 38.2611 56.1929 39.9659C56.1223 40.006 56.0316 39.9759 55.9913 39.9058C55.951 39.8356 55.9712 39.7654 56.0316 39.7152" fill="#28A31C"/>
<path d="M50.9223 44.2578C58.0573 40.427 65.3031 36.7266 73.073 34.2998C73.9195 34.0591 75.2296 33.6881 76.0862 33.5076C81.5382 32.1036 86.8793 33.0663 91.3739 36.4659C93.0569 37.7495 94.4778 39.2939 95.6469 40.9786C95.6972 41.0488 95.6771 41.139 95.6065 41.1892C95.5562 41.2293 95.4957 41.2293 95.4453 41.1892C93.6918 40.1162 92.029 39.0632 90.2755 38.2309C85.5289 35.9645 80.2381 35.3628 75.0885 36.2854C70.7249 37.1278 66.4721 38.642 62.2697 40.1463C59.5286 41.129 56.5456 42.2923 53.8347 43.3854C52.8975 43.7564 51.9704 44.1375 51.0432 44.5286C50.9626 44.5587 50.882 44.5286 50.8518 44.4484C50.8215 44.3782 50.8518 44.2979 50.9122 44.2578" fill="#1C54A3"/>
<path d="M45.1579 48.8509C53.7037 45.4213 62.2193 42.142 71.2892 40.1966C73.5667 39.7353 75.9148 39.3141 78.2629 39.1837C84.2188 38.7826 90.4266 40.8584 94.7701 44.97C95.6166 45.7823 96.4027 46.6547 97.0879 47.5974C97.1383 47.6676 97.1182 47.7578 97.0577 47.808C97.0073 47.8481 96.9368 47.8481 96.8864 47.808C94.9817 46.5845 93.0468 45.4614 90.9809 44.5889C84.8739 42.0418 78.2125 41.6005 71.6722 42.5231C67.2279 43.1649 62.7837 44.278 58.4201 45.4112C54.0061 46.5344 49.6324 47.828 45.2486 49.1417C45.168 49.1618 45.0873 49.1217 45.0672 49.0414C45.047 48.9712 45.0873 48.891 45.1478 48.8609" fill="#1C54A3"/>
<path d="M39.1819 52.6013C44.13 51.1973 49.3502 49.8836 54.3588 48.7103C66.9457 45.9425 81.5785 42.7836 93.2887 50.0441C95.5864 51.4881 97.612 53.3835 99.043 55.6097C99.0833 55.6799 99.0632 55.7702 98.9926 55.8103C98.9422 55.8504 98.8616 55.8404 98.8213 55.8003C94.7701 52.491 90.0437 50.6758 85.1359 49.663C80.1878 48.6903 75.0985 48.0585 70.0295 48.2691C62.2999 48.7304 54.5805 50.1544 46.9316 51.458C44.7145 51.8792 41.4392 52.4508 39.2423 52.8921C39.1617 52.9021 39.0811 52.852 39.071 52.7818C39.0509 52.7015 39.1012 52.6313 39.1718 52.6113" fill="#2A4770"/>
<path d="M34.4352 56.5925C39.9276 55.4794 45.702 54.4666 51.2447 53.6142C65.2224 51.6185 80.8024 49.6831 93.6212 57.0438C96.1608 58.4678 98.5089 60.2428 100.484 62.3287C100.545 62.3888 100.534 62.4791 100.484 62.5393C100.434 62.5894 100.363 62.5894 100.303 62.5593C97.1988 60.7843 94.0949 59.3302 90.7793 58.187C87.5142 57.0639 84.1482 56.2516 80.7521 55.6298C76.6505 54.8577 72.5186 54.286 68.3263 54.2158C57.0192 54.1757 45.7222 55.5997 34.4957 56.8833C34.4151 56.8934 34.3446 56.8332 34.3345 56.753C34.3345 56.6728 34.3748 56.6026 34.4554 56.5925" fill="#2A4770"/>
<path d="M5.89542 73.43L8.16288 74.1119C8.01172 74.7437 7.76986 75.2752 7.43729 75.6964C7.10473 76.1176 6.70163 76.4485 6.2179 76.6591C5.73417 76.8797 5.10936 76.98 4.36362 76.98C3.44655 76.98 2.71088 76.8496 2.12638 76.5889C1.55196 76.3282 1.04807 75.8568 0.624813 75.195C0.201553 74.5331 0 73.6807 0 72.6478C0 71.2639 0.372873 70.2009 1.10854 69.4588C1.84421 68.7167 2.89228 68.3457 4.24268 68.3457C5.30084 68.3457 6.1272 68.5563 6.73186 68.9875C7.33652 69.4187 7.79001 70.0706 8.08226 70.943L5.79464 71.4544C5.71402 71.2037 5.6334 71.0132 5.5427 70.8929C5.40161 70.6923 5.22021 70.5419 5.00858 70.4416C4.79695 70.3313 4.56517 70.2811 4.30315 70.2811C3.71865 70.2811 3.26515 70.5118 2.95275 70.9831C2.71088 71.3341 2.60003 71.8756 2.60003 72.6277C2.60003 73.5503 2.74112 74.1921 3.02329 74.5331C3.30546 74.8741 3.69849 75.0445 4.21245 75.0445C4.72641 75.0445 5.07913 74.9041 5.34115 74.6334C5.60317 74.3626 5.77448 73.9515 5.89542 73.43Z" fill="black"/>
<path d="M8.98926 73.8411C8.98926 72.9185 9.30166 72.1563 9.92648 71.5546C10.5513 70.9529 11.3978 70.6521 12.466 70.6521C13.6854 70.6521 14.6025 71.0031 15.2273 71.7051C15.7312 72.2666 15.9731 72.9686 15.9731 73.801C15.9731 74.7336 15.6607 75.4957 15.0459 76.0874C14.4211 76.679 13.5645 76.9799 12.4761 76.9799C11.4986 76.9799 10.7125 76.7292 10.1079 76.2378C9.36213 75.6261 8.99934 74.8238 8.99934 73.831L8.98926 73.8411ZM11.3273 73.8411C11.3273 74.3826 11.4381 74.7837 11.6598 75.0344C11.8815 75.2851 12.1536 75.4255 12.4862 75.4255C12.8188 75.4255 13.1009 75.2952 13.3126 75.0445C13.5242 74.7937 13.635 74.3826 13.635 73.821C13.635 73.2995 13.5242 72.9084 13.3126 72.6477C13.1009 72.387 12.8288 72.2666 12.5064 72.2666C12.1637 72.2666 11.8815 72.397 11.6699 72.6577C11.4482 72.9185 11.3373 73.3096 11.3373 73.8411H11.3273Z" fill="black"/>
<path d="M17.0917 70.8025H19.2584V71.7853C19.5809 71.3841 19.9134 71.0933 20.246 70.9228C20.5785 70.7524 20.9816 70.6621 21.4553 70.6621C22.1003 70.6621 22.6041 70.8526 22.9669 71.2337C23.3297 71.6148 23.5111 72.2065 23.5111 72.9987V76.8495H21.1731V73.5201C21.1731 73.1391 21.1026 72.8683 20.9615 72.7179C20.8204 72.5574 20.6188 72.4772 20.3669 72.4772C20.0847 72.4772 19.8529 72.5875 19.6816 72.7981C19.5103 73.0087 19.4196 73.3898 19.4196 73.9413V76.8495H17.0917V70.8025Z" fill="black"/>
<path d="M24.4987 75.175L26.8065 74.9544C26.8972 75.2252 27.0383 75.4257 27.2096 75.5461C27.3809 75.6664 27.6127 75.7266 27.8949 75.7266C28.2073 75.7266 28.4492 75.6564 28.6205 75.526C28.7515 75.4257 28.822 75.3054 28.822 75.155C28.822 74.9845 28.7313 74.8642 28.56 74.7639C28.4391 74.7037 28.0964 74.6235 27.5623 74.5232C26.7561 74.3828 26.1918 74.2524 25.8794 74.1321C25.5669 74.0118 25.2949 73.8112 25.0832 73.5304C24.8716 73.2496 24.7607 72.9187 24.7607 72.5577C24.7607 72.1565 24.8817 71.8156 25.1135 71.5248C25.3452 71.2339 25.6677 71.0234 26.0809 70.883C26.4941 70.7426 27.0383 70.6724 27.7236 70.6724C28.4492 70.6724 28.9833 70.7325 29.3259 70.8428C29.6685 70.9532 29.9608 71.1236 30.1926 71.3543C30.4244 71.5849 30.6158 71.8958 30.767 72.2969L28.56 72.5176C28.4995 72.327 28.4088 72.1866 28.2778 72.0863C28.0964 71.966 27.8747 71.9058 27.6127 71.9058C27.3507 71.9058 27.1592 71.956 27.0383 72.0462C26.9174 72.1365 26.8569 72.2568 26.8569 72.3872C26.8569 72.5376 26.9375 72.6479 27.0887 72.7181C27.2398 72.7883 27.5724 72.8585 28.0864 72.9187C28.8623 73.0089 29.4368 73.1293 29.8197 73.2797C30.2027 73.4301 30.4848 73.6608 30.6864 73.9416C30.8879 74.2324 30.9887 74.5433 30.9887 74.8942C30.9887 75.2452 30.8779 75.5862 30.6662 75.9171C30.4546 76.248 30.122 76.5088 29.6685 76.7093C29.2151 76.9099 28.5902 77.0002 27.8042 77.0002C26.6956 77.0002 25.8995 76.8397 25.4259 76.5288C24.9522 76.218 24.6499 75.7667 24.5189 75.1851L24.4987 75.175Z" fill="black"/>
<path d="M34.8888 68.4961V70.8026H36.1686V72.4973H34.8888V74.6434C34.8888 74.9041 34.9089 75.0746 34.9593 75.1548C35.0399 75.2852 35.1709 75.3454 35.3624 75.3454C35.5337 75.3454 35.7756 75.2952 36.088 75.1949L36.2593 76.7994C35.6849 76.9198 35.1407 76.99 34.6469 76.99C34.0624 76.99 33.6391 76.9198 33.367 76.7694C33.0949 76.6189 32.8934 76.3983 32.7523 76.0975C32.6213 75.7966 32.5508 75.3052 32.5508 74.6334V72.5074H31.6942V70.8126H32.5508V69.6995L34.8888 68.5061V68.4961Z" fill="black"/>
<path d="M37.3074 70.8027H39.4942V71.7955C39.7059 71.3643 39.9175 71.0735 40.1392 70.913C40.3609 70.7526 40.6431 70.6724 40.9656 70.6724C41.288 70.6724 41.6811 70.7827 42.0943 70.9933L41.3687 72.6479C41.0966 72.5376 40.8749 72.4774 40.7136 72.4774C40.4113 72.4774 40.1694 72.5978 39.9981 72.8585C39.7562 73.2095 39.6353 73.8714 39.6353 74.8441V76.8698H37.2973V70.8228L37.3074 70.8027Z" fill="black"/>
<path d="M49.2796 76.8497H47.1029V75.867C46.7804 76.2681 46.4478 76.5589 46.1253 76.7294C45.7928 76.8999 45.3897 76.9901 44.9059 76.9901C44.261 76.9901 43.7571 76.7996 43.3943 76.4185C43.0315 76.0375 42.8501 75.4458 42.8501 74.6536V70.8027H45.1881V74.1321C45.1881 74.5132 45.2587 74.7839 45.3997 74.9444C45.5408 75.1048 45.7424 75.1851 45.9943 75.1851C46.2765 75.1851 46.4982 75.0747 46.6796 74.8642C46.861 74.6536 46.9416 74.2725 46.9416 73.7209V70.8128H49.2696V76.8598L49.2796 76.8497Z" fill="black"/>
<path d="M55.2355 74.4829L57.4526 74.7336C57.3317 75.1949 57.1301 75.586 56.8479 75.9269C56.5658 76.2578 56.213 76.5286 55.7797 76.7091C55.3464 76.8997 54.7921 76.9899 54.127 76.9899C53.4618 76.9899 52.9479 76.9297 52.5145 76.8094C52.0812 76.6891 51.7184 76.4985 51.406 76.2278C51.0936 75.957 50.8517 75.6461 50.6804 75.2851C50.5091 74.9241 50.4184 74.4427 50.4184 73.8511C50.4184 73.2594 50.5292 72.7079 50.7409 72.2967C50.9021 71.9959 51.1138 71.7251 51.3859 71.4844C51.6579 71.2437 51.9401 71.0632 52.2223 70.9429C52.6758 70.7524 53.2603 70.6621 53.9657 70.6621C54.9634 70.6621 55.7192 70.8426 56.2332 71.1936C56.7572 71.5446 57.12 72.0661 57.3317 72.748L55.1347 73.0388C55.0642 72.7781 54.9433 72.5875 54.7619 72.4572C54.5805 72.3268 54.3386 72.2566 54.0363 72.2566C53.6533 72.2566 53.3409 72.397 53.099 72.6678C52.8572 72.9385 52.7363 73.3597 52.7363 73.9213C52.7363 74.4227 52.8572 74.7937 53.089 75.0545C53.3208 75.3152 53.6231 75.4456 53.996 75.4456C54.2983 75.4456 54.5603 75.3653 54.7619 75.2149C54.9735 75.0545 55.1247 74.8238 55.2254 74.4929L55.2355 74.4829Z" fill="black"/>
<path d="M61.3325 68.4961V70.8026H62.6124V72.4973H61.3325V74.6434C61.3325 74.9041 61.3526 75.0746 61.403 75.1548C61.4837 75.2852 61.6147 75.3454 61.8061 75.3454C61.9775 75.3454 62.2193 75.2952 62.5317 75.1949L62.703 76.7994C62.1286 76.9198 61.5844 76.99 61.0906 76.99C60.5061 76.99 60.0829 76.9198 59.8108 76.7694C59.5387 76.6189 59.3371 76.3983 59.196 76.0975C59.065 75.7966 58.9945 75.3052 58.9945 74.6334V72.5074H58.1379V70.8126H58.9945V69.6995L61.3325 68.5061V68.4961Z" fill="black"/>
<path d="M63.8116 68.4961H66.1395V70.0705H63.8116V68.4961ZM63.8116 70.8026H66.1395V76.8496H63.8116V70.8026Z" fill="black"/>
<path d="M67.3488 73.8411C67.3488 72.9185 67.6612 72.1563 68.286 71.5546C68.9108 70.9529 69.7574 70.6521 70.8256 70.6521C72.045 70.6521 72.9621 71.0031 73.5869 71.7051C74.0907 72.2666 74.3326 72.9686 74.3326 73.801C74.3326 74.7336 74.0202 75.4957 73.4055 76.0874C72.7807 76.679 71.9241 76.9799 70.8357 76.9799C69.8581 76.9799 69.0721 76.7292 68.4674 76.2378C67.7217 75.6261 67.3589 74.8238 67.3589 73.831L67.3488 73.8411ZM69.6868 73.8411C69.6868 74.3826 69.7977 74.7837 70.0194 75.0344C70.2411 75.2851 70.5132 75.4255 70.8458 75.4255C71.1783 75.4255 71.4605 75.2952 71.6721 75.0445C71.8838 74.7937 71.9946 74.3826 71.9946 73.821C71.9946 73.2995 71.8838 72.9084 71.6721 72.6477C71.4605 72.387 71.1884 72.2666 70.8659 72.2666C70.5233 72.2666 70.2411 72.397 70.0295 72.6577C69.8078 72.9185 69.6969 73.3096 69.6969 73.8411H69.6868Z" fill="black"/>
<path d="M75.4512 70.8025H77.6179V71.7853C77.9404 71.3841 78.273 71.0933 78.6055 70.9228C78.9381 70.7524 79.3412 70.6621 79.8148 70.6621C80.4598 70.6621 80.9637 70.8526 81.3265 71.2337C81.6893 71.6148 81.8707 72.2065 81.8707 72.9987V76.8495H79.5327V73.5201C79.5327 73.1391 79.4621 72.8683 79.321 72.7179C79.18 72.5574 78.9784 72.4772 78.7265 72.4772C78.4443 72.4772 78.2125 72.5875 78.0412 72.7981C77.8699 73.0087 77.7792 73.3898 77.7792 73.9413V76.8495H75.4512V70.8025Z" fill="black"/>
<path d="M86.8894 74.0918L89.3584 73.9414C89.4088 74.3425 89.5196 74.6434 89.6809 74.854C89.9429 75.1949 90.3258 75.3654 90.8297 75.3654C91.2026 75.3654 91.4848 75.2752 91.6863 75.1047C91.8879 74.9342 91.9886 74.7336 91.9886 74.503C91.9886 74.2824 91.8979 74.0918 91.7065 73.9213C91.515 73.7509 91.0716 73.5904 90.3762 73.44C89.2375 73.1893 88.4312 72.8483 87.9374 72.4271C87.4436 72.006 87.2018 71.4644 87.2018 70.8126C87.2018 70.3814 87.3227 69.9803 87.5746 69.5992C87.8266 69.2181 88.1995 68.9173 88.7033 68.6967C89.2072 68.476 89.8925 68.3657 90.7692 68.3657C91.8375 68.3657 92.6638 68.5663 93.2181 68.9574C93.7825 69.3585 94.115 69.9903 94.2259 70.8527L91.777 70.9931C91.7165 70.612 91.5755 70.3413 91.3638 70.1708C91.1522 70.0003 90.87 69.9101 90.4972 69.9101C90.1948 69.9101 89.9731 69.9702 89.8119 70.1006C89.6506 70.231 89.5801 70.3814 89.5801 70.5619C89.5801 70.6923 89.6406 70.8126 89.7716 70.9229C89.8925 71.0332 90.1848 71.1335 90.6382 71.2338C91.777 71.4745 92.5832 71.7252 93.077 71.9759C93.5708 72.2266 93.9235 72.5375 94.1453 72.8985C94.367 73.2695 94.4778 73.6807 94.4778 74.1319C94.4778 74.6634 94.3267 75.1648 94.0344 75.6161C93.7321 76.0674 93.3189 76.4083 92.7848 76.649C92.2507 76.8797 91.5755 77 90.7592 77C89.3281 77 88.3405 76.7292 87.7964 76.1777C87.2522 75.6261 86.9398 74.9342 86.8591 74.0918H86.8894Z" fill="black"/>
<path d="M102.409 74.4026H97.7329C97.7732 74.7737 97.874 75.0545 98.0352 75.235C98.2569 75.4957 98.5592 75.6261 98.922 75.6261C99.1538 75.6261 99.3654 75.5659 99.5771 75.4556C99.698 75.3854 99.8391 75.255 99.9802 75.0745L102.278 75.2851C101.925 75.8968 101.502 76.328 101.008 76.5888C100.514 76.8495 99.7988 76.9899 98.8716 76.9899C98.0654 76.9899 97.4305 76.8796 96.967 76.6489C96.5034 76.4283 96.1205 76.0673 95.8181 75.5759C95.5158 75.0845 95.3646 74.5029 95.3646 73.841C95.3646 72.8984 95.667 72.1262 96.2817 71.5446C96.8864 70.963 97.7329 70.6621 98.8011 70.6621C99.6678 70.6621 100.363 70.7925 100.867 71.0532C101.371 71.3139 101.754 71.695 102.016 72.1964C102.278 72.6978 102.409 73.3396 102.409 74.1419V74.4026ZM100.041 73.2895C99.9903 72.8382 99.8693 72.5173 99.6779 72.3268C99.4763 72.1363 99.2244 72.036 98.9019 72.036C98.529 72.036 98.2368 72.1864 98.015 72.4772C97.874 72.6577 97.7833 72.9285 97.7429 73.2895H100.041Z" fill="black"/>
<path d="M103.497 70.8027H105.684V71.7955C105.896 71.3643 106.107 71.0735 106.329 70.913C106.551 70.7526 106.833 70.6724 107.156 70.6724C107.478 70.6724 107.871 70.7827 108.284 70.9933L107.559 72.6479C107.287 72.5376 107.065 72.4774 106.904 72.4774C106.601 72.4774 106.359 72.5978 106.188 72.8585C105.946 73.2095 105.825 73.8714 105.825 74.8441V76.8698H103.487V70.8228L103.497 70.8027Z" fill="black"/>
<path d="M108.677 70.8027H111.106L112.285 74.6335L113.504 70.8027H115.852L113.273 76.8497H111.207L108.677 70.8027Z" fill="black"/>
<path d="M116.608 68.4961H118.936V70.0705H116.608V68.4961ZM116.608 70.8026H118.936V76.8496H116.608V70.8026Z" fill="black"/>
<path d="M124.963 74.4829L127.18 74.7336C127.059 75.1949 126.857 75.586 126.575 75.9269C126.293 76.2578 125.94 76.5286 125.507 76.7091C125.074 76.8997 124.519 76.9899 123.854 76.9899C123.189 76.9899 122.675 76.9297 122.242 76.8094C121.808 76.6891 121.446 76.4985 121.133 76.2278C120.821 75.957 120.579 75.6461 120.408 75.2851C120.236 74.9241 120.146 74.4427 120.146 73.8511C120.146 73.2594 120.256 72.7079 120.468 72.2967C120.629 71.9959 120.841 71.7251 121.113 71.4844C121.385 71.2437 121.667 71.0632 121.949 70.9429C122.403 70.7524 122.987 70.6621 123.693 70.6621C124.691 70.6621 125.446 70.8426 125.96 71.1936C126.484 71.5446 126.847 72.0661 127.059 72.748L124.862 73.0388C124.791 72.7781 124.67 72.5875 124.489 72.4572C124.308 72.3268 124.066 72.2566 123.763 72.2566C123.38 72.2566 123.068 72.397 122.826 72.6678C122.584 72.9385 122.463 73.3597 122.463 73.9213C122.463 74.4227 122.584 74.7937 122.816 75.0545C123.048 75.3152 123.35 75.4456 123.723 75.4456C124.025 75.4456 124.287 75.3653 124.489 75.2149C124.701 75.0545 124.852 74.8238 124.953 74.4929L124.963 74.4829Z" fill="black"/>
<path d="M135 74.4026H130.324C130.364 74.7737 130.465 75.0545 130.626 75.235C130.848 75.4957 131.15 75.6261 131.513 75.6261C131.745 75.6261 131.957 75.5659 132.168 75.4556C132.289 75.3854 132.43 75.255 132.571 75.0745L134.869 75.2851C134.516 75.8968 134.093 76.328 133.599 76.5888C133.105 76.8495 132.39 76.9899 131.463 76.9899C130.657 76.9899 130.022 76.8796 129.558 76.6489C129.095 76.4283 128.712 76.0673 128.409 75.5759C128.107 75.0845 127.956 74.5029 127.956 73.841C127.956 72.8984 128.258 72.1262 128.873 71.5446C129.477 70.963 130.324 70.6621 131.392 70.6621C132.259 70.6621 132.954 70.7925 133.458 71.0532C133.962 71.3139 134.345 71.695 134.607 72.1964C134.869 72.6978 135 73.3396 135 74.1419V74.4026ZM132.632 73.2895C132.581 72.8382 132.46 72.5173 132.269 72.3268C132.067 72.1363 131.815 72.036 131.493 72.036C131.12 72.036 130.828 72.1864 130.606 72.4772C130.465 72.6577 130.374 72.9285 130.334 73.2895H132.632Z" fill="black"/>
</g>
<defs>
<clipPath id="clip0_226_5">
<rect width="135" height="64" fill="white" transform="translate(0 13)"/>
</clipPath>
</defs>
</svg>
