<svg width="66" height="57" viewBox="0 0 66 57" fill="none" xmlns="http://www.w3.org/2000/svg">
<path fill-rule="evenodd" clip-rule="evenodd" d="M9.53032 21.2569L42.8571 19.0159C43.6112 18.9624 44.1602 18.6212 44.3455 18.0392C44.5042 17.6177 44.3719 17.1428 44.0345 16.8217C38.63 12.7343 29.7063 11.3294 29.7063 3.04758L29.6269 2.96731C28.2973 1.83006 26.0812 -0.0965759 24.1959 0.00376955C24.0107 0.0305283 23.8321 0.0572871 23.6469 0.110805C18.3747 1.6695 6.44769 18.4807 8.14115 20.7753C8.5579 21.3038 9.29218 21.2502 9.5237 21.2502L9.53032 21.2569ZM65.8775 17.6177L57.5491 20.0729L53.2427 23.7388L47.8911 36.4894L46.1183 41.5602L45.728 41.5869L45.7015 41.6672L44.6034 41.694L35.8583 53.1735L34.1384 53.3809C34.1384 53.3809 22.9655 44.885 20.1211 42.9851L12.8643 43.4065L11.4024 45.3867C12.7585 46.6042 13.6184 48.3703 13.6184 50.3504C13.6184 54.0164 10.6681 57 7.01659 57C3.36507 57 0.447823 54.0097 0.447823 50.3371C0.447823 46.6644 3.39815 43.6875 7.02321 43.6875C7.88317 43.6875 8.6902 43.8481 9.42448 44.1357L10.7012 42.3964C7.30765 36.7503 3.73551 31.3651 0.368442 25.6922C0.23614 25.4848 -0.286451 25.0567 0.20968 24.662L51.4963 22.5748L51.5493 22.4678L52.0454 21.9125C53.5602 21.2034 55.128 19.2701 56.6363 18.5342C59.4543 17.1896 62.1929 17.0291 65.0374 15.6309C65.9238 15.9721 66.1884 16.6611 65.8709 17.6111L65.8775 17.6177ZM24.0901 42.771C27.5365 45.2796 32.5442 49.0526 34.661 50.6649L41.3951 41.8211L24.0901 42.771Z" fill="black"/>
</svg>
