<svg width="50" height="61" viewBox="0 0 50 61" fill="none" xmlns="http://www.w3.org/2000/svg">
<path fill-rule="evenodd" clip-rule="evenodd" d="M23.6824 4.04509V0.989756C23.6824 0.451845 24.1343 0 24.6722 0C25.2388 0 25.6619 0.451845 25.6619 0.989756V4.04509C25.6619 4.583 25.2388 5.03485 24.6722 5.03485C24.1056 5.03485 23.6824 4.583 23.6824 4.04509ZM0.846313 20.4048H18.5328V13.0174H20.6845C20.3976 12.4508 20.2613 11.7982 20.2613 11.124V10.7008C20.2613 8.26948 22.2408 6.31149 24.6507 6.31149C27.0533 6.31149 29.04 8.26231 29.04 10.7008V11.124C29.04 11.8054 28.8679 12.4508 28.6169 13.0174H30.7685V20.4048H49.1937V38.7941H44.6394V57.5278H47.6374C48.0892 57.5278 48.5124 57.7286 48.7993 58.037C49.1077 58.3239 49.3085 58.747 49.3085 59.1989C49.3085 59.6507 49.1077 60.0739 48.7993 60.3895C48.5196 60.6979 48.0892 60.87 47.6374 60.87H37.4529C36.9724 60.87 36.5779 60.6979 36.2624 60.3895C35.954 60.0811 35.7818 59.6507 35.7818 59.1989C35.7818 58.747 35.954 58.3239 36.2624 58.037C36.5779 57.7286 36.9724 57.5278 37.4529 57.5278H41.1896V51.4745H8.62809V57.5278H11.8556C12.3361 57.5278 12.7306 57.7286 13.0461 58.037C13.3545 58.3239 13.5267 58.747 13.5267 59.1989C13.5267 59.6507 13.3545 60.0739 13.0461 60.3895C12.7377 60.705 12.3361 60.87 11.8556 60.87H1.67111C1.21926 60.87 0.796108 60.6979 0.509222 60.3895C0.20082 60.0811 0 59.6507 0 59.1989C0 58.747 0.20082 58.3239 0.509222 58.037C0.788936 57.7286 1.21926 57.5278 1.67111 57.5278H5.17829V38.7941H0.114754V20.4048H0.853485H0.846313ZM41.1681 48.161V38.7941H8.62809V48.161H41.1681ZM6.2828 21.9324L1.61373 29.7429V37.2952H5.17829L14.3443 21.9324H6.27563H6.2828ZM47.4796 21.9324H39.4396L30.2449 37.2952H38.3064L47.4724 21.9324H47.4796ZM36.3054 21.9324H28.2726L19.1066 37.2952H27.1394L36.3054 21.9324ZM25.9775 21.9324H17.916L8.75002 37.2952H16.79L25.9847 21.9324H25.9775ZM29.205 7.02153C28.8105 6.62706 28.8105 5.9744 29.205 5.60862L31.3566 3.45697C31.7511 3.06251 32.3751 3.06251 32.7695 3.45697C33.164 3.82275 33.164 4.47542 32.7695 4.86989L30.6179 7.02153C30.4171 7.19366 30.166 7.30124 29.9078 7.30124C29.6497 7.30124 29.3986 7.18649 29.205 7.02153ZM16.5246 4.70493C16.1302 4.31046 16.1302 3.68648 16.5246 3.29202C16.9191 2.92624 17.5431 2.92624 17.9375 3.29202L20.0892 5.44366C20.4836 5.83813 20.4836 6.49079 20.0892 6.85657C19.8884 7.05739 19.6373 7.16497 19.3791 7.16497C19.1209 7.16497 18.8699 7.05022 18.6691 6.85657L16.5175 4.70493H16.5246Z" fill="black"/>
</svg>
