<svg width="43" height="55" viewBox="0 0 43 55" fill="none" xmlns="http://www.w3.org/2000/svg">
<path fill-rule="evenodd" clip-rule="evenodd" d="M26.9114 33.091C26.9114 31.9737 26.0148 31.0771 24.8976 31.0771C23.7803 31.0771 22.8561 31.9737 22.8561 33.091C22.8561 34.0979 22.3664 34.7256 21.6836 34.9945L21.0284 34.2083L20.7319 33.829L20.4077 34.2359L19.8905 34.9187C19.1801 34.5669 18.6352 33.8565 18.6352 32.7668C18.6352 30.9461 20.456 30.484 20.7871 30.4288C21.7664 30.2633 22.4768 29.4219 22.4768 28.4425V22.8078H21.8492C21.8768 22.7251 21.8768 22.6423 21.8768 22.5595V1.35868C21.8768 0.620715 21.2767 0 20.5181 0C19.787 0 19.187 0.627612 19.187 1.35868V22.8009H18.4283V26.9666C16.6076 27.7804 14.704 29.7943 14.704 32.9807C14.5109 35.3463 15.6834 37.0912 17.4007 38.0705L10.7591 46.4502H0V48.8985H2.23457V52.5194H0V54.4229H42.45V52.5194H40.2154V48.8985H42.45V46.4502H31.2633L24.2975 38.0981C25.8217 37.2015 26.9114 35.567 26.9114 33.091ZM20.7595 35.1325H20.7043L20.7319 35.1049L20.7595 35.1325ZM18.118 38.4222C19.8077 39.1326 21.8768 39.1878 23.5596 38.4774L30.2219 46.4502H11.7729L18.1111 38.4222H18.118Z" fill="black"/>
</svg>
