<svg width="917" height="1011" viewBox="0 0 917 1011" fill="none" xmlns="http://www.w3.org/2000/svg">
<g opacity="0.4">
<path d="M217.961 297.543C284.737 216.233 353.972 136.961 432.629 66.2483C466.222 37.1072 500.634 6.53958 547.132 0.833632C595.883 -5.27989 640.537 23.0461 670.238 59.1158C688.264 81.1245 701.169 105.375 710.591 131.052C711.615 133.701 708.338 136.35 705.88 134.72C665.937 108.432 625.789 72.3618 581.34 63.8029C538.734 55.6515 496.538 79.698 462.535 103.541C420.953 133.497 380.805 166.714 341.272 199.727C301.329 233.147 261.796 267.383 222.262 301.415C221.033 302.434 218.78 301.823 217.961 301.211C217.346 300.396 216.937 298.562 217.961 297.339" fill="white"/>
<path d="M110.441 429.277C204.242 345.564 300.097 263.887 406.009 195.042C447.265 168.767 496.116 141.473 548.045 139.029C601.412 135.566 657.241 160.212 693.161 196.468C717.381 220.299 735.649 247.999 748.58 277.533C749.811 280.385 746.322 283.033 743.859 281.2C717.586 262.461 693.161 244.129 667.504 230.075C617.627 201.763 566.723 194.635 511.305 206.244C453.833 217.447 400.672 252.277 349.974 282.218C269.924 330.491 191.927 382.227 114.135 433.962C112.699 434.98 110.851 434.573 109.825 433.147C109.004 431.925 109.209 430.296 110.235 429.277" fill="white"/>
<path d="M9.91499 543.418C66.8539 500.754 125.848 460.948 185.871 422.775C254.526 379.907 325.032 339.488 401.087 309.684C445.487 293.15 491.121 278.248 539.015 277.431C597.599 276.615 657.415 299.886 701.404 335.609C730.799 359.289 755.054 387.46 774.171 418.488C775.815 421.142 772.527 424.408 769.854 422.571C711.682 386.847 652.893 351.532 586.293 342.754C529.971 334.793 472.004 342.754 417.121 357.044C342.299 379.703 270.765 414.201 200.671 448.7C137.154 479.728 75.0761 513.615 13.2039 548.318C11.765 549.134 9.91505 548.522 9.09283 547.093C8.2706 545.664 8.68165 544.235 9.91499 543.214" fill="white"/>
<path d="M-93.9902 637.433C51.5376 559.166 199.326 483.562 357.804 433.979C375.07 429.062 401.791 421.481 419.262 417.793C530.464 389.109 639.404 408.778 731.078 478.235C765.405 504.461 794.387 536.014 818.23 570.435C819.258 571.869 818.847 573.713 817.408 574.738C816.38 575.557 815.147 575.557 814.119 574.738C778.354 552.815 744.439 531.301 708.673 514.296C611.861 467.991 503.948 455.697 398.913 474.547C309.911 491.758 223.17 522.696 137.457 553.429C81.5476 573.508 20.7054 597.275 -34.5869 619.608C-53.7028 627.189 -72.6132 634.975 -91.5235 642.965C-93.1679 643.58 -94.8123 642.965 -95.429 641.326C-96.0456 639.892 -95.429 638.253 -94.1957 637.433" fill="white"/>
<path d="M-211.552 731.62C-37.2403 660.98 136.455 593.439 321.455 553.368C367.911 543.867 415.805 535.192 463.7 532.507C585.184 524.245 711.806 567.001 800.401 651.686C817.667 668.416 833.701 686.386 847.678 705.801C848.706 707.247 848.295 709.106 847.062 710.139C846.034 710.965 844.595 710.965 843.567 710.139C804.717 684.94 765.251 661.806 723.112 643.837C598.545 591.373 462.672 582.285 329.266 601.288C238.616 614.507 147.966 637.434 58.9599 660.774C-31.0736 683.907 -120.285 710.552 -209.702 737.61C-211.346 738.023 -212.991 737.197 -213.402 735.544C-213.813 734.099 -212.991 732.446 -211.757 731.826" fill="white"/>
<path d="M-332.681 807.272C-231.954 778.856 -125.688 752.268 -23.7294 728.52C232.5 672.501 530.374 608.567 768.755 755.515C815.529 784.742 856.764 823.103 885.895 868.162C886.715 869.583 886.305 871.409 884.869 872.221C883.843 873.033 882.202 872.83 881.381 872.018C798.912 805.039 702.698 768.302 602.791 747.802C502.064 728.114 398.464 715.327 295.275 719.59C137.927 728.926 -19.2162 757.748 -174.923 784.133C-220.056 792.658 -286.729 804.227 -331.451 813.158C-333.092 813.361 -334.733 812.346 -334.938 810.925C-335.348 809.301 -334.323 807.881 -332.887 807.475" fill="white"/>
<path d="M-429.946 888.891C-318.011 866.335 -200.325 845.812 -87.363 828.539C197.507 788.101 515.033 748.882 776.283 898.036C828.041 926.891 875.895 962.859 916.151 1005.13C917.383 1006.35 917.178 1008.17 916.151 1009.39C915.124 1010.41 913.686 1010.41 912.454 1009.8C849.195 973.832 785.937 944.367 718.365 921.201C651.82 898.442 583.221 881.982 514.006 869.384C430.414 853.737 346.206 842.154 260.766 840.731C30.323 839.919 -199.914 868.774 -428.714 894.784C-430.357 894.988 -431.795 893.768 -432 892.143C-432 890.517 -431.178 889.095 -429.535 888.891" fill="white"/>
</g>
</svg>
